<?xml version="1.0" encoding="UTF-8"?>
<svg id="_レイヤー_2" data-name="レイヤー 2" xmlns="http://www.w3.org/2000/svg" viewBox="0 0 689.54 155.8">
  <g id="_レイヤー_1-2" data-name="レイヤー 1">
    <g>
      <path d="M179.1,103.46c-.9,4.65-2.7,6.75-5.1,6.75-4.2,0-5.55-4.35-6-10.5-.6-8.85,1.2-25.5,2.25-34.2,1.8-15.15-16.05-22.5-30.45-22.5-9.45,0-22.35,3.6-22.35,13.8,0,4.65,2.85,7.05,6,7.05,4.05,0,8.55-4.05,7.5-12.9.9-2.1,4.65-3.15,9-3.15,10.8,0,18.45,5.85,17.55,18.45-.3,2.7-.6,6-1.05,9.6-2.7-1.2-5.85-1.95-9-1.95-16.05,0-31.65,13.05-31.65,26.25,0,9.15,6.45,16.65,16.8,16.65,7.35,0,16.65-3.15,22.95-12.45h.6c2.1,7.8,7.05,12.6,13.95,12.6,7.8,0,12.3-6,13.2-12,.45-3-3.75-4.05-4.2-1.5ZM155.25,97.46c0,1.2.15,2.25.3,3.3-3.75,5.7-10.05,8.55-15.6,8.55-6.3,0-10.35-4.5-10.35-12.9s6.3-18,20.1-18c1.95,0,4.05.15,6.45.6-.6,6.45-1.05,13.2-.9,18.45Z"/>
      <path d="M192,110.36c7.5-.9,8.25-5.1,8.25-14.4v-34.8c0-6.9-2.1-11.55-9.75-11.55-2.7,0-2.7-4.35,0-4.35h5.7c4.35,0,12-.6,13.8-1.2,1.8-.6,4.2,1.35,3.75,3.45-.45,1.95-.75,5.25-.75,9v39.3c0,9.45.75,14.1,10.05,14.55,2.7.15,2.85,4.65,0,4.35-4.8-.6-9.9-.9-15.75-.9s-10.8.45-15.3.9c-2.55.3-2.55-4.05,0-4.35Z"/>
      <path d="M197.85,13.61c0-5.7,4.05-9.45,8.4-9.45s8.4,3.75,8.4,9.45-4.05,9.15-8.4,9.15-8.4-3.3-8.4-9.15Z"/>
      <path d="M211.65,142.3c0-4.2,2.25-7.05,6.3-7.05s8.1,3,7.2,14.55c1.5.6,2.25.9,3.45.9,10.35,0,14.1-9,14.1-21.3V61.16c0-6.9-2.1-11.55-9.75-11.55-2.7,0-2.7-4.35,0-4.35h5.7c4.35,0,12-.6,13.8-1.2,1.8-.6,4.2,1.35,3.75,3.45-.45,1.95-.75,5.25-.75,9v69.9c0,20.4-13.5,29.4-26.7,29.4-6.75,0-17.1-3.6-17.1-13.5Z"/>
      <path d="M240.15,13.61c0-5.7,4.05-9.45,8.25-9.45s8.4,3.75,8.4,9.45-4.05,9.15-8.4,9.15-8.25-3.3-8.25-9.15Z"/>
      <path d="M274.2,110.36c7.5-.9,8.25-5.1,8.25-14.4v-34.8c0-6.9-2.1-11.55-9.75-11.55-2.7,0-2.7-4.35,0-4.35h5.7c4.35,0,12-.6,13.8-1.2,1.8-.6,4.2,1.35,3.75,3.45-.45,1.95-.75,5.25-.75,9v39.3c0,9.45.75,14.1,10.05,14.55,2.7.15,2.85,4.65,0,4.35-4.8-.6-9.9-.9-15.75-.9s-10.8.45-15.3.9c-2.55.3-2.55-4.05,0-4.35Z"/>
      <path d="M280.05,13.61c0-5.7,4.05-9.45,8.4-9.45s8.4,3.75,8.4,9.45-4.05,9.15-8.4,9.15-8.4-3.3-8.4-9.15Z"/>
      <path d="M317.7,110.36c7.5-.9,8.25-5.1,8.25-14.4v-33.3c0-6.9-2.1-13.05-9.75-13.05-2.7,0-2.7-4.35,0-4.35h5.7c3.6,0,9.6-.6,11.55-1.2,1.65-.6,3.15,1.35,3.6,3.45.45,1.8.75,5.25.75,9v8.85h.6c3.6-15.6,13.8-22.35,26.55-22.35,11.25,0,19.65,5.25,19.65,14.25v38.55c0,9.45.6,14.1,8.55,14.55,2.7.15,2.85,4.65,0,4.35-4.35-.6-9-.9-14.1-.9-5.55,0-10.95.45-15.45.9-2.55.3-2.55-4.05,0-4.35,7.5-.9,8.25-5.1,8.25-14.4v-31.65c0-10.8-5.85-15.75-13.05-15.75-10.65,0-20.1,10.5-20.1,28.35v18.9c0,9.45.75,14.1,10.05,14.55,2.7.15,2.85,4.65,0,4.35-4.8-.6-9.9-.9-15.75-.9s-10.8.45-15.3.9c-2.55.3-2.55-4.05,0-4.35Z"/>
      <path d="M404.85,110.66c12-1.2,13.35-5.4,13.35-14.7V24.71c0-9.3-1.35-13.5-13.35-14.7-2.7-.3-2.7-4.5,0-4.35,6,.3,13.35.9,21,.9,9.15,0,15.15-.6,20.85-.9,2.85-.15,2.7,4.2,0,4.35-12.15.6-13.05,5.4-13.05,14.7v27.75h50.4v-27.75c0-9.3-1.35-13.5-13.35-14.7-2.7-.3-2.7-4.5,0-4.35,6,.3,13.35.9,21,.9,9.15,0,15.15-.6,20.85-.9,2.85-.15,2.7,4.2,0,4.35-12.15.6-13.05,5.4-13.05,14.7v71.25c0,9.3.9,14.1,13.05,14.7,2.7.15,2.85,4.5,0,4.35-5.7-.3-11.7-.9-20.85-.9-7.65,0-15,.6-21,.9-2.7.15-2.7-4.05,0-4.35,12-1.2,13.35-5.4,13.35-14.7v-38.4h-50.4v38.4c0,9.3.9,14.1,13.05,14.7,2.7.15,2.85,4.5,0,4.35-5.7-.3-11.7-.9-20.85-.9-7.65,0-15,.6-21,.9-2.7.15-2.7-4.05,0-4.35Z"/>
      <path d="M533.09,102.41c-.3-13.8-.3-30.45,0-41.25,0-6.9-2.1-11.55-9.75-11.55-2.7,0-2.7-4.35,0-4.35h5.7c4.35,0,12-.6,13.8-1.2,1.8-.6,4.2,1.35,3.75,3.45-.45,1.95-.75,5.25-.75,9-.3,12.9-.3,27.45,0,38.85.3,11.1,5.25,16.05,13.05,16.05,10.2,0,20.1-10.65,20.1-28.5v-21.75c0-6.9-2.1-11.55-9.75-11.55-2.7,0-2.7-4.35,0-4.35h5.7c4.35,0,12-.6,13.8-1.2,1.8-.6,4.2,1.35,3.75,3.45-.45,1.95-.75,5.25-.75,9v40.8c0,6.9,2.1,13.05,9.75,13.05,2.7,0,2.7,4.35,0,4.35h-5.7c-3.6,0-9.6.6-11.55,1.2-1.65.6-3.15-1.35-3.6-3.45-.45-1.8-.75-5.25-.75-9l.15-9h-.75c-3.6,15.75-13.8,22.5-26.55,22.5s-19.35-5.25-19.65-14.55Z"/>
      <path d="M659.54,43.01c-14.85,0-22.2,10.65-25.35,19.95h-.75l.9-17.7.15-32.7c0-3.75.3-7.05.75-9,.45-2.1-1.95-4.05-3.75-3.45-1.8.6-9.45,1.2-13.8,1.2h-5.7c-2.7,0-2.7,4.35,0,4.35,7.65,0,9.75,4.65,9.75,11.55v78.75c0,9.3-.75,14.1-8.25,15-2.55.3-2.55,4.65,0,4.35,4.5-.45,9.75-.6,15.3-.6h1.2c1.35,0,2.25-.9,2.25-2.25v-9.3h.6c5.55,9,11.7,13.8,22.95,13.8,20.25,0,33.75-18.15,33.75-39.3s-12.15-34.65-30-34.65ZM653.69,111.26c-11.7,0-19.2-9.15-19.2-19.8v-18.3c0-9.9,8.85-23.4,21.6-23.4s19.05,10.95,19.05,29.85c0,20.85-8.25,31.65-21.45,31.65Z"/>
      <path d="M0,59.96C0,29.06,24.6,3.71,51.6,3.71c11.85,0,23.85,4.65,29.25,11.4l.9-4.95c.75-4.05,7.35-3.15,7.2.45-.45,9.45-.9,18.75.15,28.2.45,4.35-6.75,4.35-7.35,0-2.55-17.4-13.5-29.85-30.15-29.85-24.6,0-34.35,22.65-34.35,51s9.3,51.75,32.85,51.75c18,0,26.25-6.6,26.25-21.3,0-8.4-1.35-12-13.35-13.2-2.7-.3-2.7-4.5,0-4.35,5.4.3,12,.3,18.9.3h4.8c6.6,0,12.45,0,18.3-.3,2.85-.15,2.7,4.2,0,4.35-12.15.6-13.05,5.4-13.05,14.85v14.4c0,2.85-1.65,3.9-4.35,3.3l-6-1.2c-6.9,0-14.85,8.55-31.5,8.55C23.85,117.1,0,91.61,0,59.96Z"/>
    </g>
  </g>
</svg>