<?xml version="1.0" standalone="no"?>
<!DOCTYPE svg PUBLIC "-//W3C//DTD SVG 20010904//EN"
 "http://www.w3.org/TR/2001/REC-SVG-20010904/DTD/svg10.dtd">
<svg version="1.0" xmlns="http://www.w3.org/2000/svg"
 width="605.000000pt" height="557.000000pt" viewBox="0 0 605.000000 557.000000"
 preserveAspectRatio="xMidYMid meet">

<g transform="translate(0.000000,557.000000) scale(0.100000,-0.100000)"
fill="#000000" stroke="none">
<path d="M2865 4793 c-94 -8 -250 -36 -354 -63 -160 -42 -403 -146 -529 -227
l-54 -34 -63 26 c-223 89 -463 41 -625 -124 -115 -117 -164 -240 -163 -406 1
-144 40 -258 125 -367 l30 -38 -41 -122 c-115 -348 -145 -654 -96 -980 38
-256 138 -529 272 -745 l51 -81 -34 -48 c-92 -129 -88 -329 10 -457 18 -23 56
-59 86 -80 75 -52 144 -70 244 -65 99 5 173 36 240 101 l47 45 92 -48 c214
-113 484 -196 728 -224 383 -45 730 14 1086 184 66 32 141 71 165 87 42 29 44
29 88 16 25 -8 81 -16 125 -19 263 -19 502 142 581 390 48 149 32 328 -39 451
l-23 40 23 52 c45 104 113 320 138 443 18 89 28 171 32 285 13 352 -53 661
-208 973 l-70 142 27 33 c53 63 77 133 77 227 1 101 -24 174 -83 248 -125 159
-375 188 -532 62 -20 -17 -39 -30 -42 -30 -3 0 -37 21 -77 46 -95 62 -333 175
-444 212 -245 81 -540 117 -790 95z m458 -212 c64 -11 177 -40 250 -64 l132
-43 -130 -7 c-165 -9 -355 -38 -512 -78 l-122 -31 -78 59 c-43 33 -106 76
-141 97 -35 21 -60 42 -55 47 7 7 121 26 253 43 74 9 290 -3 403 -23z m-836
-156 c101 -53 228 -134 221 -140 -2 -2 -47 -21 -102 -44 -54 -22 -164 -75
-244 -116 -80 -41 -147 -73 -149 -71 -2 1 -8 29 -14 60 -10 57 -10 60 31 144
47 98 126 222 142 222 6 0 58 -25 115 -55z m1486 -180 l87 -17 0 -69 c0 -75
19 -141 56 -201 l25 -39 -73 -105 c-40 -58 -80 -115 -89 -126 l-15 -21 -60 23
c-81 31 -220 38 -296 16 -31 -9 -58 -16 -61 -16 -3 0 -43 48 -88 108 -104 135
-154 195 -253 305 -55 62 -76 91 -67 96 14 9 226 49 326 61 108 13 406 4 508
-15z m-967 -217 c60 -62 145 -158 190 -213 79 -99 174 -228 174 -237 0 -3 -14
-23 -31 -44 -82 -102 -124 -239 -116 -369 3 -44 9 -89 12 -101 6 -18 -22 -34
-275 -157 l-281 -137 -64 55 c-117 99 -215 135 -366 135 l-97 0 -21 93 c-33
145 -51 272 -58 403 l-6 122 36 44 c20 25 50 75 67 112 29 63 35 70 117 123
136 87 538 277 599 282 6 1 60 -50 120 -111z m1385 -237 c30 -6 81 -10 113 -9
l58 3 63 -123 c97 -191 157 -395 158 -537 0 -207 -137 -483 -388 -783 -60 -71
-60 -72 -111 -72 -28 0 -73 -7 -100 -15 -27 -8 -52 -15 -56 -15 -4 0 -9 26
-13 58 -10 94 -54 353 -69 410 l-15 53 58 58 c100 103 155 235 154 376 0 121
-38 235 -103 309 l-31 35 101 136 c56 76 107 134 114 132 6 -3 36 -10 67 -16z
m-2501 -399 c0 -76 18 -206 50 -363 l31 -146 -63 -64 c-162 -165 -200 -400
-99 -604 22 -44 58 -100 81 -124 22 -24 40 -47 40 -52 0 -5 -32 -74 -72 -153
l-71 -143 -61 4 c-34 3 -78 1 -99 -5 l-38 -11 -40 62 c-117 182 -225 455 -250
630 -10 70 -11 102 -1 159 30 173 121 383 254 583 75 113 191 245 216 246 9 0
33 6 52 13 64 24 70 22 70 -32z m-441 27 c17 -6 31 -13 31 -16 0 -2 -24 -37
-53 -76 -30 -40 -64 -87 -76 -105 -13 -18 -25 -31 -28 -28 -5 5 52 186 69 219
10 20 15 21 57 6z m1945 -607 c106 -96 244 -146 390 -140 l71 3 22 -105 c24
-114 53 -348 53 -424 0 -42 -5 -54 -41 -94 -48 -55 -81 -116 -103 -192 -16
-54 -18 -56 -99 -102 -181 -103 -538 -258 -596 -258 -40 0 -279 274 -412 472
l-59 87 50 68 c27 38 62 100 77 138 24 63 27 83 28 200 l1 129 269 133 c149
73 276 133 284 133 7 0 37 -21 65 -48z m1332 -476 c-26 -80 -50 -148 -55 -151
-10 -6 -101 35 -101 45 0 3 34 50 75 104 41 54 85 114 97 134 37 60 32 19 -16
-132z m-2224 -458 c67 -101 199 -268 285 -362 35 -38 63 -72 63 -76 0 -15
-220 -43 -381 -47 -155 -5 -349 8 -376 25 -6 4 -18 32 -26 62 -14 46 -48 108
-92 166 -6 9 13 57 63 159 l72 147 43 -9 c56 -11 206 -8 237 5 46 20 56 13
112 -70z m1286 -364 c7 -27 16 -58 18 -69 10 -39 -159 -305 -193 -305 -50 0
-357 192 -336 210 4 4 56 26 114 49 58 23 163 70 235 106 71 35 133 62 139 61
5 -1 15 -25 23 -52z m-679 -296 c42 -33 107 -81 144 -106 53 -35 65 -48 53
-54 -9 -5 -89 -11 -179 -15 -175 -6 -291 3 -457 39 -96 20 -298 83 -313 97 -4
4 59 11 140 14 153 6 335 33 458 66 39 11 72 20 74 20 1 1 37 -27 80 -61z"/>
</g>
</svg>
